<svg width="719" height="556" viewBox="0 0 719 556" fill="none" xmlns="http://www.w3.org/2000/svg">
<g clip-path="url(#clip0_78_2567)">
<path d="M510.351 407.794H123.16C119.71 407.79 116.403 406.354 113.963 403.802C111.524 401.25 110.151 397.791 110.147 394.182V64.3805C110.151 60.7716 111.524 57.3117 113.963 54.7599C116.403 52.208 119.71 50.7725 123.16 50.7683H510.351C513.801 50.7725 517.109 52.208 519.548 54.7599C521.988 57.3117 523.36 60.7716 523.364 64.3805V394.182C523.36 397.791 521.988 401.25 519.548 403.802C517.109 406.354 513.801 407.79 510.351 407.794Z" fill="#013255"/>
<path d="M131.94 60.4573C128.616 60.4613 125.43 61.8441 123.081 64.3023C120.731 66.7605 119.409 70.0934 119.405 73.5698V385C119.409 388.477 120.731 391.809 123.081 394.267C125.431 396.725 128.617 398.108 131.94 398.112H396.957C428.017 398.075 457.795 385.152 479.757 362.177C501.72 339.203 514.074 308.053 514.109 275.562V73.5698C514.105 70.0934 512.784 66.7605 510.434 64.3023C508.084 61.8441 504.898 60.4613 501.575 60.4573L131.94 60.4573Z" fill="white"/>
<path d="M439.747 200.522H369.54C368.076 200.52 366.672 199.911 365.636 198.827C364.601 197.744 364.019 196.276 364.017 194.744V158.191C364.019 156.659 364.601 155.19 365.636 154.107C366.672 153.024 368.076 152.415 369.54 152.413H439.747C441.211 152.415 442.615 153.024 443.65 154.107C444.686 155.19 445.268 156.659 445.27 158.191C449.614 171.126 450.231 183.417 445.27 194.744C445.268 196.276 444.686 197.744 443.65 198.827C442.615 199.911 441.211 200.52 439.747 200.522Z" fill="#013255"/>
<path d="M431.43 196.989H371.782C370.538 196.987 369.345 196.47 368.466 195.55C367.586 194.629 367.091 193.382 367.09 192.08V161.024C367.091 159.723 367.586 158.475 368.466 157.555C369.345 156.635 370.538 156.117 371.782 156.116H431.43C432.674 156.117 433.867 156.635 434.747 157.555C435.626 158.475 436.121 159.723 436.122 161.024C440.148 172.085 440.796 182.551 436.122 192.08C436.121 193.382 435.626 194.629 434.747 195.55C433.867 196.47 432.674 196.987 431.43 196.989Z" fill="white"/>
<path d="M428.213 219.669H380.919C379.528 219.671 378.192 219.095 377.207 218.068C376.222 217.041 375.667 215.646 375.664 214.191C375.661 212.735 376.212 211.338 377.193 210.307C378.175 209.276 379.508 208.695 380.899 208.691H428.213C429.603 208.694 430.935 209.274 431.917 210.303C432.899 211.332 433.45 212.726 433.45 214.18C433.45 215.634 432.899 217.029 431.917 218.058C430.935 219.087 429.603 219.667 428.213 219.669Z" fill="#013255"/>
<path d="M396.414 164.501C395.87 164.503 395.349 164.731 394.964 165.133C394.58 165.536 394.363 166.082 394.362 166.651V189.917C394.362 190.293 394.456 190.662 394.636 190.987C394.815 191.313 395.072 191.584 395.383 191.773C395.694 191.961 396.046 192.061 396.405 192.063C396.764 192.064 397.118 191.967 397.43 191.781L417.061 180.072C417.376 179.884 417.639 179.612 417.821 179.283C418.003 178.955 418.098 178.582 418.097 178.202C418.096 177.822 417.999 177.449 417.815 177.122C417.631 176.794 417.368 176.524 417.051 176.338L397.421 164.78C397.114 164.598 396.767 164.502 396.414 164.501Z" fill="#013255"/>
<path d="M682.821 511.486C681.739 510.045 680.268 508.977 678.6 508.42C676.932 507.862 675.142 507.84 673.461 508.356L673.094 508.47L669.797 521.932C669.304 519.926 668.247 515.396 667.581 510.963L667.523 510.596L667.196 510.747C663.75 512.34 660.51 514.383 657.554 516.826C652.317 521.221 648.057 526.756 645.071 533.046C642.085 539.337 640.445 546.232 640.263 553.253L640.258 553.512L640.252 553.674L640.688 553.512L650.054 550.009C654.201 550.392 658.377 549.8 662.278 548.279C666.178 546.757 669.705 544.344 672.6 541.215C676.384 537.04 678.98 531.67 681.489 526.473C682.224 524.96 682.977 523.398 683.746 521.896C684.604 520.263 684.975 518.398 684.81 516.542C684.646 514.687 683.953 512.925 682.821 511.486Z" fill="#F2F2F2"/>
<path d="M443.639 168.186C443.827 169.205 444.226 170.169 444.809 171.009C445.391 171.849 446.143 172.545 447.01 173.049C447.878 173.553 448.84 173.851 449.83 173.923C450.82 173.996 451.813 173.84 452.739 173.467L480.731 207.531L484.275 194.956L456.523 163.792C455.822 162.206 454.589 160.944 453.057 160.245C451.526 159.547 449.803 159.46 448.215 160.002C446.627 160.544 445.284 161.676 444.44 163.184C443.597 164.693 443.312 166.472 443.639 168.186L443.639 168.186Z" fill="#FFB8B8"/>
<path d="M556.454 545.368H547.19L542.783 507.99H556.456L556.454 545.368Z" fill="#FFB6B6"/>
<path d="M556.207 542.203L546.316 537.995L546.033 537.873L540.572 542.203C537.488 542.204 534.531 543.485 532.351 545.766C530.171 548.047 528.946 551.14 528.945 554.365V554.76H558.814V542.203H556.207Z" fill="black"/>
<path d="M622.537 545.368H613.274L608.867 507.99H622.539L622.537 545.368Z" fill="#FFB6B6"/>
<path d="M622.29 542.203L612.399 537.995L612.116 537.873L606.655 542.203C603.572 542.204 600.615 543.485 598.435 545.766C596.254 548.047 595.029 551.14 595.029 554.365V554.76H624.897V542.203H622.29Z" fill="black"/>
<path d="M600.674 322.166C600.674 322.166 612.293 334.811 612.293 345.201C612.293 355.59 609.388 369.856 612.293 372.979C615.198 376.101 618.829 379.899 614.472 384.457C610.115 389.015 607.936 391.294 610.841 394.333C613.746 397.371 612.293 450.547 612.293 450.547L627.543 521.955H608.331L583.972 450.547L577.436 391.294L556.299 448.268L558.633 522.567L538.547 521.954L530.233 442.951C530.233 442.951 542.579 367.799 540.4 365.873C538.222 363.947 540.4 360.059 540.4 360.059L546.21 331.282L600.674 322.166Z" fill="black"/>
<path d="M577.925 232.511C577.925 232.511 581.876 216.226 563.674 211.557C545.473 206.888 493.443 200.889 493.443 200.889L467.149 171.702L458.24 185.237L487.716 223.555L557.558 238.561L577.925 232.511Z" fill="black"/>
<path d="M462.57 184.24C463.387 183.133 464.026 181.895 464.462 180.573L468.233 170.881L467.254 170.838C465.9 170.571 464.507 170.607 463.166 170.943C461.826 171.279 460.569 171.908 459.477 172.787C458.385 173.667 457.483 174.778 456.83 176.048C456.177 177.318 455.788 178.718 455.689 180.156C455.565 181.4 455.779 182.655 456.305 183.778C456.573 184.334 456.963 184.817 457.444 185.185C457.924 185.554 458.481 185.798 459.069 185.898C459.737 185.936 460.404 185.805 461.013 185.516C461.623 185.227 462.157 184.789 462.57 184.24Z" fill="#013255"/>
<path d="M542.501 335.163L540.323 351.683C540.323 351.683 544.68 356.578 546.858 355.966C549.037 355.354 557.025 351.792 557.025 351.792C557.025 351.792 566.466 357.19 571.549 357.801C576.632 358.413 603.502 354.742 604.228 352.907C604.954 351.071 613.394 343.886 613.394 343.886L610.037 322.925L542.501 335.163Z" fill="#013255"/>
<path d="M613.254 277.369C613.254 277.369 611.41 293.299 612.862 294.765C614.314 296.223 611.41 305.453 608.505 311.531C605.6 317.608 610.683 318.367 610.683 322.925C610.683 327.483 612.862 344.196 612.862 344.196C612.862 344.196 590.35 345.715 586.719 341.917C583.088 338.118 577.278 341.157 569.29 349.513C561.302 357.869 543.953 351.032 540.322 347.234C536.691 343.436 543.147 329.762 545.326 327.111C547.505 324.46 543.227 327.529 541.049 319.127C538.87 310.725 543.147 311.53 546.778 307.732C550.409 303.934 546.778 297.097 543.874 290.26C540.969 283.423 543.147 232.527 543.147 220.372C543.147 208.218 559.124 206.698 559.124 206.698L565.449 198.38L570.096 192.265L579.203 191.885L579.442 191.878L588.251 191.505L592.528 196.717L601.969 208.218L612.862 210.497C621.576 213.535 619.398 232.527 619.398 232.527L613.254 277.369Z" fill="black"/>
<path d="M578.754 188.59C589.063 188.59 597.421 179.847 597.421 169.063C597.421 158.278 589.063 149.536 578.754 149.536C568.444 149.536 560.087 158.278 560.087 169.063C560.087 179.847 568.444 188.59 578.754 188.59Z" fill="#FFB6B6"/>
<path d="M600.398 162.494C595.263 159.2 595.921 150.588 590.974 147.58C588.516 146.098 585.751 145.258 582.915 145.134C580.08 145.009 577.257 145.603 574.688 146.865C571.204 145.305 567.029 146.55 564.242 149.366C561.455 152.182 559.946 156.336 559.501 160.513C559.179 164.711 559.468 168.935 560.355 173.042C560.632 171.392 560.909 169.742 561.186 168.092L575.902 164.727C574.599 165.951 573.296 167.176 571.994 168.4C578.658 169.987 585.651 168.844 591.535 165.204C597.941 168.208 596.78 174.955 591.156 183.909C593.335 187.707 606.248 166.247 600.398 162.494Z" fill="black"/>
<path d="M592.529 196.717C592.487 196.752 592.444 196.785 592.398 196.815C590.86 197.775 589.099 198.274 587.308 198.259C584.963 198.463 582.636 197.7 580.823 196.132C579.871 195.19 576.088 197.18 573.604 198.282C570.999 199.411 568.078 199.446 565.449 198.38L570.097 192.265L577.757 190.489H579.669L588.252 191.505L592.529 196.717Z" fill="#013255"/>
<path d="M717.867 555.693L458.025 556C457.876 556.001 457.728 555.971 457.589 555.912C457.451 555.853 457.325 555.766 457.219 555.656C457.112 555.546 457.028 555.415 456.97 555.27C456.912 555.126 456.882 554.972 456.881 554.815C456.88 554.659 456.909 554.504 456.965 554.359C457.022 554.214 457.105 554.082 457.21 553.971C457.315 553.86 457.44 553.772 457.578 553.711C457.716 553.65 457.864 553.619 458.013 553.618H458.025L717.867 553.311C718.168 553.312 718.456 553.438 718.669 553.662C718.881 553.885 719 554.187 719 554.502C719 554.816 718.881 555.118 718.669 555.342C718.456 555.565 718.168 555.691 717.867 555.693Z" fill="#013255"/>
<path d="M406.742 155.731H404.83V12.6541H480.04V14.6545H406.742V155.731Z" fill="black"/>
<path d="M538.533 0H487.855C484.558 0 481.397 1.36997 479.066 3.80852C476.734 6.24707 475.425 9.55445 475.425 13.0031C475.425 16.4517 476.734 19.7591 479.066 22.1977C481.397 24.6362 484.558 26.0062 487.855 26.0062H538.533C541.829 26.0062 544.991 24.6362 547.322 22.1977C549.653 19.7591 550.963 16.4517 550.963 13.0031C550.963 9.55445 549.653 6.24707 547.322 3.80852C544.991 1.36997 541.829 0 538.533 0Z" fill="#013255"/>
<path d="M404.677 168.82C410.985 168.82 416.099 163.471 416.099 156.872C416.099 150.272 410.985 144.923 404.677 144.923C398.368 144.923 393.254 150.272 393.254 156.872C393.254 163.471 398.368 168.82 404.677 168.82Z" fill="#013255"/>
<path d="M267.034 201.77L317.144 189.64L331.527 186.158C333.326 185.723 332.579 182.825 330.779 183.261L280.669 195.391L266.286 198.873C264.487 199.308 265.234 202.206 267.034 201.77H267.034Z" fill="#F2F2F2"/>
<path d="M318.779 170.18L345.604 183.089C346.52 183.42 347.377 183.905 348.143 184.526C348.883 185.285 348.344 186.015 347.74 186.675C345.935 188.439 344.028 190.086 342.03 191.605L330.602 201.325C329.167 202.545 331.191 204.674 332.613 203.466L342.567 195L347.544 190.767C348.954 189.568 350.67 188.344 351.237 186.434C352.427 182.421 347.729 180.825 345.118 179.568L333.436 173.947L320.24 167.597C318.576 166.796 317.103 169.374 318.779 170.18Z" fill="#F2F2F2"/>
<path d="M688.967 268.447C684.188 265.058 678.382 263.799 672.707 263.371C666.257 263.004 659.792 263.012 653.343 263.395C646.643 263.673 639.957 264.18 633.285 264.916C626.622 265.654 619.988 266.62 613.381 267.816C607.466 268.779 601.612 270.119 595.853 271.829C590.402 273.407 585.267 276.001 580.696 279.486C576.683 282.643 573.597 286.914 571.789 291.814C570.013 296.409 569.712 301.483 570.929 306.273C571.577 308.6 572.687 310.758 574.187 312.605C575.92 314.632 577.973 316.333 580.257 317.633C584.998 320.464 590.369 322.167 594.657 325.792C595.788 326.741 596.818 327.813 597.731 328.99C598.352 329.901 599.209 330.606 600.201 331.022C601.141 331.366 602.158 331.411 603.122 331.151C604.087 330.891 604.956 330.339 605.621 329.563C606.48 328.333 607.196 327.002 607.754 325.595L610.016 321.03C610.167 320.631 610.357 320.248 610.582 319.889C610.751 319.677 610.448 319.893 610.506 319.838C610.538 319.807 610.603 319.808 610.64 319.783C610.827 319.686 611.022 319.608 611.224 319.549C613.316 318.715 615.418 317.906 617.529 317.124C625.321 314.219 633.207 311.541 641.218 309.373C645.34 308.216 649.52 307.301 653.74 306.632C659.205 305.818 664.753 305.912 670.243 305.356C676.154 304.756 682.253 303.505 687.322 300.1C691.514 297.436 694.743 293.393 696.504 288.605C697.267 286.323 697.529 283.89 697.269 281.487C696.611 276.051 693.216 271.461 688.967 268.447Z" fill="#013255"/>
<path d="M679.186 271.502C674.867 268.439 669.621 267.301 664.492 266.914C658.663 266.583 652.821 266.59 646.993 266.936C640.939 267.187 634.897 267.645 628.868 268.311C622.847 268.977 616.851 269.851 610.881 270.931C605.535 271.802 600.246 273.013 595.041 274.558C590.115 275.984 585.475 278.328 581.344 281.477C577.718 284.33 574.929 288.189 573.295 292.617C571.691 296.77 571.418 301.355 572.518 305.684C573.104 307.786 574.107 309.736 575.462 311.406C577.029 313.238 578.884 314.774 580.948 315.949C585.232 318.508 590.086 320.047 593.961 323.323C594.983 324.18 595.914 325.149 596.739 326.212C597.299 327.036 598.074 327.673 598.971 328.049C599.82 328.359 600.739 328.4 601.611 328.165C602.482 327.93 603.268 327.431 603.869 326.73C604.645 325.619 605.292 324.415 605.796 323.145L607.84 319.019C607.977 318.658 608.148 318.313 608.351 317.988C608.505 317.797 608.231 317.992 608.283 317.942C608.312 317.914 608.371 317.915 608.404 317.893C608.573 317.805 608.75 317.734 608.932 317.681C610.823 316.927 612.722 316.196 614.63 315.49C621.671 312.864 628.797 310.444 636.036 308.485C639.761 307.439 643.539 306.613 647.352 306.008C652.291 305.272 657.305 305.358 662.266 304.855C667.608 304.313 673.119 303.182 677.7 300.105C681.488 297.698 684.405 294.044 685.997 289.717C686.687 287.655 686.923 285.457 686.689 283.285C686.094 278.373 683.026 274.225 679.186 271.502Z" fill="white"/>
<path d="M670.141 277.032L599.765 290.61C599.564 290.65 599.357 290.649 599.156 290.605C598.956 290.561 598.765 290.477 598.596 290.356C598.427 290.235 598.282 290.081 598.17 289.901C598.058 289.722 597.98 289.521 597.943 289.311C597.905 289.1 597.907 288.884 597.95 288.674C597.992 288.464 598.073 288.265 598.189 288.089C598.305 287.912 598.453 287.761 598.625 287.644C598.797 287.527 598.989 287.447 599.191 287.409L599.2 287.407L669.576 273.829C669.777 273.79 669.983 273.793 670.183 273.838C670.383 273.882 670.573 273.968 670.741 274.089C670.91 274.21 671.054 274.365 671.165 274.545C671.276 274.724 671.352 274.925 671.39 275.135C671.427 275.345 671.424 275.561 671.381 275.771C671.338 275.98 671.257 276.178 671.141 276.354C671.025 276.53 670.877 276.681 670.705 276.797C670.534 276.914 670.342 276.994 670.141 277.032V277.032Z" fill="#013255"/>
<path d="M671.874 286.864L601.498 300.442C601.297 300.482 601.09 300.481 600.89 300.437C600.689 300.393 600.499 300.309 600.33 300.188C600.16 300.067 600.016 299.913 599.904 299.733C599.791 299.554 599.714 299.353 599.677 299.143C599.639 298.932 599.641 298.716 599.683 298.506C599.726 298.296 599.807 298.097 599.923 297.921C600.039 297.744 600.187 297.593 600.359 297.476C600.531 297.36 600.723 297.279 600.924 297.241L600.934 297.239L671.309 283.661C671.511 283.622 671.717 283.625 671.917 283.67C672.117 283.714 672.307 283.8 672.475 283.921C672.643 284.042 672.787 284.197 672.898 284.377C673.01 284.556 673.086 284.757 673.123 284.967C673.16 285.177 673.157 285.393 673.115 285.603C673.072 285.812 672.99 286.01 672.874 286.186C672.758 286.362 672.61 286.513 672.439 286.629C672.267 286.746 672.075 286.826 671.874 286.864Z" fill="#013255"/>
<path d="M611.433 308.692L603.232 310.274C602.826 310.351 602.409 310.256 602.07 310.011C601.731 309.766 601.499 309.39 601.424 308.967C601.349 308.543 601.438 308.105 601.671 307.75C601.904 307.394 602.262 307.15 602.667 307.071L610.868 305.488C611.274 305.411 611.692 305.505 612.031 305.75C612.371 305.995 612.603 306.371 612.678 306.795C612.753 307.219 612.664 307.657 612.43 308.013C612.197 308.368 611.838 308.612 611.433 308.692Z" fill="#013255"/>
<path d="M605.491 349.566C609.086 348.872 611.462 345.262 610.799 341.502C610.136 337.742 606.685 335.256 603.091 335.95C599.496 336.643 597.12 340.253 597.783 344.013C598.446 347.773 601.897 350.259 605.491 349.566Z" fill="#013255"/>
<path d="M241.283 198.67H181.172C178.381 198.666 175.706 197.505 173.733 195.441C171.76 193.377 170.65 190.578 170.646 187.659V146.217C170.65 143.298 171.76 140.499 173.733 138.435C175.706 136.371 178.381 135.21 181.172 135.206H241.283C244.074 135.21 246.749 136.371 248.722 138.435C250.696 140.499 251.806 143.298 251.809 146.217V187.659C251.805 190.578 250.695 193.377 248.722 195.441C246.749 197.505 244.074 198.666 241.283 198.67Z" fill="#013255"/>
<path d="M234.678 196.437H182.362C179.933 196.434 177.605 195.423 175.887 193.627C174.17 191.831 173.204 189.395 173.201 186.854V150.786C173.204 148.246 174.17 145.81 175.887 144.014C177.605 142.217 179.933 141.207 182.362 141.204H234.678C237.106 141.207 239.435 142.217 241.152 144.014C242.869 145.81 243.835 148.246 243.838 150.786V186.854C243.835 189.395 242.869 191.831 241.152 193.627C239.435 195.423 237.106 196.434 234.678 196.437Z" fill="white"/>
<path d="M249.75 236.007H172.619C172.142 236.006 171.686 235.807 171.349 235.454C171.012 235.101 170.823 234.623 170.823 234.124C170.823 233.626 171.012 233.147 171.349 232.794C171.686 232.441 172.142 232.243 172.619 232.241H249.75C250.226 232.243 250.683 232.441 251.02 232.794C251.356 233.147 251.545 233.626 251.545 234.124C251.545 234.623 251.356 235.101 251.02 235.454C250.683 235.807 250.226 236.006 249.75 236.007Z" fill="#013255"/>
<path d="M249.75 225.249H172.619C172.142 225.248 171.686 225.049 171.349 224.696C171.012 224.343 170.823 223.865 170.823 223.366C170.823 222.867 171.012 222.389 171.349 222.036C171.686 221.683 172.142 221.485 172.619 221.483H249.75C250.226 221.485 250.683 221.683 251.02 222.036C251.356 222.389 251.545 222.867 251.545 223.366C251.545 223.865 251.356 224.343 251.02 224.696C250.683 225.049 250.226 225.248 249.75 225.249Z" fill="#013255"/>
<path d="M249.75 246.765H172.619C172.142 246.765 171.684 246.566 171.346 246.213C171.009 245.86 170.819 245.381 170.819 244.882C170.819 244.383 171.009 243.904 171.346 243.551C171.684 243.198 172.142 242.999 172.619 242.999H249.75C250.227 242.999 250.685 243.198 251.023 243.551C251.36 243.904 251.55 244.383 251.55 244.882C251.55 245.381 251.36 245.86 251.023 246.213C250.685 246.566 250.227 246.765 249.75 246.765Z" fill="#013255"/>
<path d="M249.75 257.523H172.619C172.142 257.523 171.684 257.324 171.346 256.971C171.009 256.618 170.819 256.139 170.819 255.64C170.819 255.141 171.009 254.662 171.346 254.309C171.684 253.956 172.142 253.757 172.619 253.757H249.75C250.227 253.757 250.685 253.956 251.023 254.309C251.36 254.662 251.55 255.141 251.55 255.64C251.55 256.139 251.36 256.618 251.023 256.971C250.685 257.324 250.227 257.523 249.75 257.523Z" fill="#013255"/>
<path d="M249.75 268.281H172.619C172.142 268.281 171.684 268.082 171.346 267.729C171.009 267.376 170.819 266.897 170.819 266.398C170.819 265.899 171.009 265.42 171.346 265.067C171.684 264.714 172.142 264.515 172.619 264.515H249.75C250.227 264.515 250.685 264.714 251.023 265.067C251.36 265.42 251.55 265.899 251.55 266.398C251.55 266.897 251.36 267.376 251.023 267.729C250.685 268.082 250.227 268.281 249.75 268.281Z" fill="#013255"/>
<path d="M249.75 279.038H172.619C172.142 279.037 171.686 278.839 171.349 278.486C171.012 278.133 170.823 277.654 170.823 277.156C170.823 276.657 171.012 276.179 171.349 275.826C171.686 275.473 172.142 275.274 172.619 275.273H249.75C250.226 275.274 250.683 275.473 251.02 275.826C251.356 276.179 251.545 276.657 251.545 277.156C251.545 277.654 251.356 278.133 251.02 278.486C250.683 278.839 250.226 279.037 249.75 279.038Z" fill="#013255"/>
<path d="M207.329 254.366H209.241V331.427H70.9229V329.427H207.329V254.366Z" fill="black"/>
<path d="M12.4303 344.082H63.1079C66.4046 344.082 69.5663 342.712 71.8975 340.273C74.2286 337.835 75.5382 334.527 75.5382 331.079C75.5382 327.63 74.2286 324.323 71.8975 321.884C69.5663 319.445 66.4046 318.075 63.1079 318.075H12.4303C9.13361 318.075 5.97191 319.445 3.64077 321.884C1.30963 324.323 0 327.63 0 331.079C0 334.527 1.30963 337.835 3.64077 340.273C5.97191 342.712 9.13361 344.082 12.4303 344.082Z" fill="#013255"/>
<path d="M209.617 260.173C215.925 260.173 221.039 254.823 221.039 248.224C221.039 241.625 215.925 236.276 209.617 236.276C203.308 236.276 198.194 241.625 198.194 248.224C198.194 254.823 203.308 260.173 209.617 260.173Z" fill="#013255"/>
<path d="M268.656 251.545C285.426 255.273 281.16 256.001 297.93 259.729L312.371 262.94C314.177 263.342 314.672 260.385 312.865 259.984C296.095 256.255 300.361 255.527 283.59 251.799L269.15 248.588C267.343 248.187 266.848 251.143 268.656 251.545H268.656Z" fill="#F2F2F2"/>
<path d="M307.282 242.82L326.368 266.389C327.063 267.094 327.644 267.913 328.086 268.815C328.45 269.83 327.667 270.252 326.852 270.584C324.503 271.383 322.109 272.031 319.685 272.524L305.398 276.273C303.605 276.744 304.578 279.569 306.355 279.102L318.798 275.837L325.019 274.204C326.782 273.742 328.832 273.392 330.118 271.912C332.82 268.803 329.208 265.277 327.351 262.984L319.039 252.72L309.65 241.126C308.466 239.665 306.089 241.348 307.282 242.82V242.82Z" fill="#F2F2F2"/>
<path d="M367.797 345.557C382.467 345.557 394.36 333.116 394.36 317.77C394.36 302.424 382.467 289.983 367.797 289.983C353.127 289.983 341.234 302.424 341.234 317.77C341.234 333.116 353.127 345.557 367.797 345.557Z" fill="#013255"/>
<path d="M365.208 342.014C376.361 342.014 385.402 332.556 385.402 320.89C385.402 309.223 376.361 299.765 365.208 299.765C354.055 299.765 345.014 309.223 345.014 320.89C345.014 332.556 354.055 342.014 365.208 342.014Z" fill="white"/>
<path d="M361.585 335.352C361.126 335.352 360.674 335.24 360.263 335.026C359.853 334.811 359.496 334.499 359.221 334.115L351.975 324.008C351.742 323.683 351.572 323.314 351.476 322.921C351.379 322.527 351.358 322.118 351.412 321.716C351.467 321.315 351.597 320.928 351.794 320.579C351.992 320.229 352.253 319.924 352.564 319.68C352.874 319.437 353.227 319.259 353.603 319.158C353.979 319.057 354.37 319.035 354.754 319.092C355.138 319.149 355.508 319.285 355.842 319.492C356.176 319.698 356.467 319.972 356.7 320.296L356.702 320.299L361.443 326.911L373.62 307.805C373.835 307.466 374.112 307.176 374.434 306.949C374.757 306.723 375.118 306.565 375.499 306.485C375.88 306.405 376.272 306.405 376.653 306.483C377.034 306.562 377.397 306.719 377.72 306.944C378.043 307.169 378.32 307.459 378.536 307.797C378.752 308.134 378.903 308.513 378.978 308.912C379.054 309.31 379.054 309.72 378.979 310.119C378.903 310.517 378.753 310.896 378.537 311.234L364.044 333.975C363.781 334.387 363.429 334.726 363.015 334.966C362.602 335.205 362.139 335.337 361.667 335.351C361.64 335.351 361.612 335.352 361.585 335.352Z" fill="#013255"/>
<path d="M615.829 346.395C616.684 345.869 617.418 345.153 617.981 344.298C618.543 343.443 618.919 342.469 619.082 341.445C619.246 340.422 619.193 339.373 618.927 338.373C618.661 337.373 618.189 336.446 617.544 335.658L638.872 296.671L626.358 297.382L607.561 335.163C606.367 336.384 605.643 338.022 605.526 339.765C605.408 341.508 605.907 343.236 606.926 344.62C607.945 346.005 609.414 346.95 611.055 347.277C612.696 347.604 614.394 347.29 615.829 346.395H615.829Z" fill="#FFB8B8"/>
<path d="M591.805 209.737C591.805 209.737 614.394 202.14 620.204 220.372C626.013 238.604 645.543 287.981 645.543 287.981L624.561 332.801L615.12 322.166L625.21 291.02L596.162 245.441L591.805 209.737Z" fill="black"/>
<path d="M625.281 328.224C624.601 327.02 623.738 325.94 622.727 325.027L615.519 317.77L615.118 318.705C614.379 319.922 613.895 321.289 613.696 322.716C613.498 324.143 613.59 325.597 613.966 326.984C614.342 328.371 614.994 329.659 615.88 330.764C616.765 331.869 617.864 332.766 619.104 333.395C620.162 333.977 621.356 334.235 622.548 334.14C623.141 334.086 623.714 333.885 624.22 333.555C624.725 333.225 625.149 332.774 625.455 332.24C625.736 331.605 625.867 330.908 625.836 330.21C625.806 329.511 625.615 328.829 625.281 328.224Z" fill="#013255"/>
<path d="M367.567 355.152H365.655V432.213H430.347V430.213H367.567V355.152Z" fill="black"/>
<path d="M501.27 431.865C501.267 428.417 499.956 425.111 497.625 422.674C495.295 420.236 492.135 418.865 488.839 418.861H438.162C434.865 418.861 431.703 420.231 429.372 422.67C427.041 425.109 425.731 428.416 425.731 431.865C425.731 435.313 427.041 438.621 429.372 441.059C431.703 443.498 434.865 444.868 438.162 444.868H488.839C492.135 444.864 495.295 443.493 497.625 441.055C499.956 438.618 501.267 435.312 501.27 431.865Z" fill="#013255"/>
<path d="M365.279 360.959C371.587 360.959 376.701 355.61 376.701 349.01C376.701 342.411 371.587 337.062 365.279 337.062C358.97 337.062 353.856 342.411 353.856 349.01C353.856 355.61 358.97 360.959 365.279 360.959Z" fill="#013255"/>
</g>
<defs>
<clipPath id="clip0_78_2567">
<rect width="719" height="556" fill="white"/>
</clipPath>
</defs>
</svg>
