<svg width="126" height="111" viewBox="0 0 126 111" fill="none" xmlns="http://www.w3.org/2000/svg">
<g filter="url(#filter0_d_336_50)">
<rect x="26" y="21" width="74" height="74" rx="8" fill="white" shape-rendering="crispEdges"/>
<path fill-rule="evenodd" clip-rule="evenodd" d="M38 58.1396C38 70.5698 47.0278 80.905 58.8333 83V64.9444H52.5833V58H58.8333V52.4444C58.8333 46.1944 62.861 42.7222 68.5556 42.7222C70.361 42.7222 72.3056 43 74.111 43.2778V49.6666H70.9167C67.861 49.6666 67.1667 51.1944 67.1667 53.1389V58H73.8333L72.7223 64.9444H67.1667V83C78.9723 80.905 88 70.5698 88 58.1396C88 44.3129 76.75 33 63 33C49.25 33 38 44.3129 38 58.1396H38Z" fill="#013255"/>
</g>
<defs>
<filter id="filter0_d_336_50" x="0" y="0" width="126" height="126" filterUnits="userSpaceOnUse" color-interpolation-filters="sRGB">
<feFlood flood-opacity="0" result="BackgroundImageFix"/>
<feColorMatrix in="SourceAlpha" type="matrix" values="0 0 0 0 0 0 0 0 0 0 0 0 0 0 0 0 0 0 127 0" result="hardAlpha"/>
<feMorphology radius="4" operator="dilate" in="SourceAlpha" result="effect1_dropShadow_336_50"/>
<feOffset dy="5"/>
<feGaussianBlur stdDeviation="11"/>
<feComposite in2="hardAlpha" operator="out"/>
<feColorMatrix type="matrix" values="0 0 0 0 0 0 0 0 0 0 0 0 0 0 0 0 0 0 0.12 0"/>
<feBlend mode="normal" in2="BackgroundImageFix" result="effect1_dropShadow_336_50"/>
<feBlend mode="normal" in="SourceGraphic" in2="effect1_dropShadow_336_50" result="shape"/>
</filter>
</defs>
</svg>
