<svg width="31" height="31" viewBox="0 0 31 31" fill="none" xmlns="http://www.w3.org/2000/svg">
<path fill-rule="evenodd" clip-rule="evenodd" d="M21.136 9.86366C21.136 11.3585 20.5422 12.7921 19.4852 13.8492C18.4281 14.9062 16.9945 15.5 15.4996 15.5C14.0048 15.5 12.5712 14.9062 11.5141 13.8492C10.4571 12.7921 9.86328 11.3585 9.86328 9.86366C9.86328 8.3688 10.4571 6.93517 11.5141 5.87815C12.5712 4.82112 14.0048 4.22729 15.4996 4.22729C16.9945 4.22729 18.4281 4.82112 19.4852 5.87815C20.5422 6.93517 21.136 8.3688 21.136 9.86366ZM18.3178 9.86366C18.3178 10.6111 18.0209 11.3279 17.4924 11.8564C16.9639 12.3849 16.2471 12.6818 15.4996 12.6818C14.7522 12.6818 14.0354 12.3849 13.5069 11.8564C12.9784 11.3279 12.6815 10.6111 12.6815 9.86366C12.6815 9.11623 12.9784 8.39941 13.5069 7.8709C14.0354 7.34239 14.7522 7.04548 15.4996 7.04548C16.2471 7.04548 16.9639 7.34239 17.4924 7.8709C18.0209 8.39941 18.3178 9.11623 18.3178 9.86366Z" fill="#A4A4A4"/>
<path fill-rule="evenodd" clip-rule="evenodd" d="M15.5 0C6.93977 0 0 6.93977 0 15.5C0 24.0602 6.93977 31 15.5 31C24.0602 31 31 24.0602 31 15.5C31 6.93977 24.0602 0 15.5 0ZM2.81818 15.5C2.81818 18.445 3.82286 21.1561 5.50673 23.3092C6.68928 21.7562 8.21486 20.4977 9.96429 19.6319C11.7137 18.7661 13.6396 18.3165 15.5916 18.3182C17.5183 18.3164 19.42 18.7543 21.1518 19.5987C22.8836 20.4431 24.3998 21.6717 25.5849 23.1908C26.8058 21.5895 27.6278 19.7205 27.983 17.7385C28.3382 15.7564 28.2162 13.7183 27.6273 11.7927C27.0384 9.86707 25.9994 8.10939 24.5964 6.66505C23.1933 5.22072 21.4664 4.13126 19.5587 3.48681C17.651 2.84236 15.6172 2.66145 13.6257 2.95905C11.6342 3.25665 9.74216 4.02421 8.10617 5.19821C6.47019 6.37221 5.13728 7.91891 4.21773 9.71032C3.29818 11.5017 2.81844 13.4864 2.81818 15.5ZM15.5 28.1818C12.5887 28.1862 9.76538 27.1847 7.50764 25.3467C8.4164 24.0458 9.62598 22.9836 11.0335 22.2505C12.4409 21.5175 14.0047 21.1352 15.5916 21.1364C17.1587 21.1351 18.7036 21.5078 20.0978 22.2234C21.492 22.939 22.6953 23.9769 23.6079 25.2509C21.3326 27.1485 18.4627 28.186 15.5 28.1818Z" fill="#A4A4A4"/>
</svg>
